<?xml version="1.0" encoding="UTF-8" standalone="no"?>
<!DOCTYPE svg PUBLIC "-//W3C//DTD SVG 1.1//EN"
"http://www.w3.org/Graphics/SVG/1.1/DTD/svg11.dtd">


<!-- Page 1 -->
<svg x="0" y="0" width="1192" height="771" viewBox="0 0 1192 771" version="1.1" xmlns="http://www.w3.org/2000/svg" xmlns:xlink="http://www.w3.org/1999/xlink"
style="display: block;margin-left: auto;margin-right: auto;">
<defs>
<clipPath id="c_1"><path d="M0,0H1192V771H0Z"/></clipPath>
<clipPath id="c0_1"><path d="M-47.7,1609.6V-211.5H1240.1V1609.6Z"/></clipPath>
<clipPath id="c1_1"><path d="M-3.4,1565.2V-167.2H1195.8V1565.2Z"/></clipPath>

<style type="text/css"><![CDATA[
text { white-space: pre; }
path, image { pointer-events: none; }
text::-moz-selection {
	color: transparent;
	background: rgba(0, 106, 173, 0.4);
}
text::selection {
	color: transparent;
	background: rgba(0, 106, 173, 0.4);
}

.s1_1{
font-size: 36.69px;
font-family: Montserrat-Regular_n;
fill: TRANSPARENT;
}
.s2_1{
font-size: 20.64px;
font-family: Montserrat-Regular_n;
fill: TRANSPARENT;
}

.g0_1{
fill: #FFFFFF;
}
.g1_1{
fill: #28A745;
}

]]></style>

</defs>
<path d="M0,0
L0,771
L1192,771
L1192,0 Z " 
fill="#FFFFFF" stroke="none"/>
<g clip-path="url(#c_1)">
<g clip-path="url(#c0_1)">
<path d="M-47.7,-211.5H1669.4V2216H-47.7V-211.5Z" class="g0_1"/>
</g>
<g clip-path="url(#c1_1)">
<path d="M-3.4,-167.2H1195.8V1973.4H-3.4V-167.2Z" class="g0_1"/>
<path d="M-3.4,-2.1H1195.8V777.5H-3.4V-2.1Z" class="g1_1"/>
<g fill="#FFFFFF" >
<use xlink:href="#f0_1l" transform="matrix(24,0,0,24,273.5,320)" />
<use xlink:href="#f0_24" transform="matrix(24,0,0,24,312.3,320)" />
<use xlink:href="#f0_2m" transform="matrix(24,0,0,24,334.4,320)" />
<use xlink:href="#f0_2l" transform="matrix(24,0,0,24,344.3,320)" />
<use xlink:href="#f0_2q" transform="matrix(24,0,0,24,365.6,320)" />
<use xlink:href="#f0_2n" transform="matrix(24,0,0,24,388.6,320)" />
<use xlink:href="#f0_1z" transform="matrix(24,0,0,24,437.1,320)" />
<use xlink:href="#f0_2c" transform="matrix(24,0,0,24,462,320)" />
<use xlink:href="#f0_2j" transform="matrix(24,0,0,24,471.9,320)" />
<use xlink:href="#f0_1d" transform="matrix(24,0,0,24,491.5,320)" />
<use xlink:href="#f0_20" transform="matrix(24,0,0,24,514.1,320)" />
<use xlink:href="#f0_2q" transform="matrix(24,0,0,24,534.4,320)" />
<use xlink:href="#f0_35" transform="matrix(24,0,0,24,557.4,320)" />
<use xlink:href="#f0_34" transform="matrix(24,0,0,24,582.1,320)" />
<use xlink:href="#f0_2c" transform="matrix(24,0,0,24,597,320)" />
<use xlink:href="#f0_2o" transform="matrix(24,0,0,24,606.9,320)" />
<use xlink:href="#f0_2a" transform="matrix(24,0,0,24,631.8,320)" />
<use xlink:href="#f0_p" transform="matrix(24,0,0,24,666.6,320)" />
<use xlink:href="#f0_35" transform="matrix(24,0,0,24,696.4,320)" />
<use xlink:href="#f0_2c" transform="matrix(24,0,0,24,721.1,320)" />
<use xlink:href="#f0_32" transform="matrix(24,0,0,24,731,320)" />
<use xlink:href="#f0_32" transform="matrix(24,0,0,24,748.9,320)" />
<use xlink:href="#f0_24" transform="matrix(24,0,0,24,766.9,320)" />
<use xlink:href="#f0_2o" transform="matrix(24,0,0,24,789,320)" />
<use xlink:href="#f0_1p" transform="matrix(24,0,0,24,823.5,320)" />
<use xlink:href="#f0_1r" transform="matrix(24,0,0,24,847.4,320)" />
<use xlink:href="#f0_2o" transform="matrix(24,0,0,24,869,320)" />
<use xlink:href="#f0_22" transform="matrix(24,0,0,24,894,320)" />
<use xlink:href="#f0_1l" transform="matrix(13.5,0,0,13.5,244.7,385.4)" />
</g>
</g>
<text x="273" y="320" dx="0,-2,0,0,-.8,0,0,0,0,0,0,0,0,-.3,0,0,0,0,.1,0,0,0,0,0,0,0,0,0,0,0,0,.1" class="s1_1">Welkom bij Scouting Huissen Zand</text>
<g clip-path="url(#c1_1)">
<g fill="#FFFFFF" >
<use xlink:href="#f0_24" transform="matrix(13.5,0,0,13.5,266.5,385.4)" />
<use xlink:href="#f0_2m" transform="matrix(13.5,0,0,13.5,279,385.4)" />
<use xlink:href="#f0_2l" transform="matrix(13.5,0,0,13.5,284.5,385.4)" />
<use xlink:href="#f0_2q" transform="matrix(13.5,0,0,13.5,296.5,385.4)" />
<use xlink:href="#f0_2n" transform="matrix(13.5,0,0,13.5,309.4,385.4)" />
<use xlink:href="#f0_1z" transform="matrix(13.5,0,0,13.5,336.7,385.4)" />
<use xlink:href="#f0_2c" transform="matrix(13.5,0,0,13.5,350.7,385.4)" />
<use xlink:href="#f0_2j" transform="matrix(13.5,0,0,13.5,356.3,385.4)" />
<use xlink:href="#f0_22" transform="matrix(13.5,0,0,13.5,367.3,385.4)" />
<use xlink:href="#f0_24" transform="matrix(13.5,0,0,13.5,381.3,385.4)" />
<use xlink:href="#f0_3a" transform="matrix(13.5,0,0,13.5,399.2,385.4)" />
<use xlink:href="#f0_24" transform="matrix(13.5,0,0,13.5,410.1,385.4)" />
<use xlink:href="#f0_31" transform="matrix(13.5,0,0,13.5,422.5,385.4)" />
<use xlink:href="#f0_2o" transform="matrix(13.5,0,0,13.5,430.7,385.4)" />
<use xlink:href="#f0_2c" transform="matrix(13.5,0,0,13.5,444.6,385.4)" />
<use xlink:href="#f0_24" transform="matrix(13.5,0,0,13.5,450.2,385.4)" />
<use xlink:href="#f0_35" transform="matrix(13.5,0,0,13.5,462.6,385.4)" />
<use xlink:href="#f0_3b" transform="matrix(13.5,0,0,13.5,476.5,385.4)" />
<use xlink:href="#f0_22" transform="matrix(13.5,0,0,13.5,494.4,385.4)" />
<use xlink:href="#f0_24" transform="matrix(13.5,0,0,13.5,508.4,385.4)" />
<use xlink:href="#f0_3b" transform="matrix(13.5,0,0,13.5,526.2,385.4)" />
<use xlink:href="#f0_24" transform="matrix(13.5,0,0,13.5,544.1,385.4)" />
<use xlink:href="#f0_1z" transform="matrix(13.5,0,0,13.5,556.5,385.4)" />
<use xlink:href="#f0_32" transform="matrix(13.5,0,0,13.5,570.5,385.4)" />
<use xlink:href="#f0_2c" transform="matrix(13.5,0,0,13.5,580.6,385.4)" />
<use xlink:href="#f0_34" transform="matrix(13.5,0,0,13.5,586.2,385.4)" />
<use xlink:href="#f0_24" transform="matrix(13.5,0,0,13.5,594.1,385.4)" />
<use xlink:href="#f0_3a" transform="matrix(13.5,0,0,13.5,612,385.4)" />
<use xlink:href="#f0_1r" transform="matrix(13.5,0,0,13.5,622.9,385.4)" />
<use xlink:href="#f0_2o" transform="matrix(13.5,0,0,13.5,635.1,385.4)" />
<use xlink:href="#f0_1d" transform="matrix(13.5,0,0,13.5,654.4,385.4)" />
<use xlink:href="#f0_20" transform="matrix(13.5,0,0,13.5,667.1,385.4)" />
<use xlink:href="#f0_2q" transform="matrix(13.5,0,0,13.5,678.6,385.4)" />
<use xlink:href="#f0_35" transform="matrix(13.5,0,0,13.5,691.5,385.4)" />
<use xlink:href="#f0_34" transform="matrix(13.5,0,0,13.5,705.4,385.4)" />
<use xlink:href="#f0_2c" transform="matrix(13.5,0,0,13.5,713.8,385.4)" />
<use xlink:href="#f0_2o" transform="matrix(13.5,0,0,13.5,719.3,385.4)" />
<use xlink:href="#f0_2a" transform="matrix(13.5,0,0,13.5,733.3,385.4)" />
<use xlink:href="#f0_p" transform="matrix(13.5,0,0,13.5,752.9,385.4)" />
<use xlink:href="#f0_35" transform="matrix(13.5,0,0,13.5,769.7,385.4)" />
<use xlink:href="#f0_2c" transform="matrix(13.5,0,0,13.5,783.6,385.4)" />
<use xlink:href="#f0_32" transform="matrix(13.5,0,0,13.5,789.1,385.4)" />
<use xlink:href="#f0_32" transform="matrix(13.5,0,0,13.5,799.2,385.4)" />
<use xlink:href="#f0_24" transform="matrix(13.5,0,0,13.5,809.3,385.4)" />
<use xlink:href="#f0_2o" transform="matrix(13.5,0,0,13.5,821.8,385.4)" />
<use xlink:href="#f0_1p" transform="matrix(13.5,0,0,13.5,841.1,385.4)" />
<use xlink:href="#f0_1r" transform="matrix(13.5,0,0,13.5,854.6,385.4)" />
<use xlink:href="#f0_2o" transform="matrix(13.5,0,0,13.5,866.8,385.4)" />
<use xlink:href="#f0_22" transform="matrix(13.5,0,0,13.5,880.8,385.4)" />
<use xlink:href="#f0_4z" transform="matrix(13.5,0,0,13.5,894.8,385.4)" />
<use xlink:href="#f0_p" transform="matrix(13.5,0,0,13.5,904.6,385.4)" />
<use xlink:href="#f0_2c" transform="matrix(13.5,0,0,13.5,921.3,385.4)" />
<use xlink:href="#f0_24" transform="matrix(13.5,0,0,13.5,926.9,385.4)" />
<use xlink:href="#f0_31" transform="matrix(13.5,0,0,13.5,939.4,385.4)" />
<use xlink:href="#f0_2l" transform="matrix(13.5,0,0,13.5,248.8,416.3)" />
</g>
</g>
<text x="244" y="385" dx="0,-1.1,0,0,-.4,0,0,0,0,0,0,0,0,0,0,-.3,0,-.2,0,0,0,0,-.3,0,0,0,-.3,0,0,0,0,-.4,0,0,-.3,0,0,0,0,-.2,0,0,0,0,0,0,0,0,0,0,0,0,0,0,0,0,0,0,0,0,0,0,0,0" class="s2_1">Welkom bij de vernieuwde website van Scouting Huissen Zand. Hier</text>
<g clip-path="url(#c1_1)">
<g fill="#FFFFFF" >
<use xlink:href="#f0_35" transform="matrix(13.5,0,0,13.5,261,416.3)" />
<use xlink:href="#f0_2o" transform="matrix(13.5,0,0,13.5,274.9,416.3)" />
<use xlink:href="#f0_2j" transform="matrix(13.5,0,0,13.5,294.3,416.3)" />
<use xlink:href="#f0_24" transform="matrix(13.5,0,0,13.5,299.9,416.3)" />
<use xlink:href="#f0_2c" transform="matrix(13.5,0,0,13.5,317.8,416.3)" />
<use xlink:href="#f0_2o" transform="matrix(13.5,0,0,13.5,323.4,416.3)" />
<use xlink:href="#f0_29" transform="matrix(13.5,0,0,13.5,337.3,416.3)" />
<use xlink:href="#f0_2q" transform="matrix(13.5,0,0,13.5,344.2,416.3)" />
<use xlink:href="#f0_31" transform="matrix(13.5,0,0,13.5,357.1,416.3)" />
<use xlink:href="#f0_2n" transform="matrix(13.5,0,0,13.5,365.2,416.3)" />
<use xlink:href="#f0_1r" transform="matrix(13.5,0,0,13.5,387.1,416.3)" />
<use xlink:href="#f0_34" transform="matrix(13.5,0,0,13.5,399.3,416.3)" />
<use xlink:href="#f0_2c" transform="matrix(13.5,0,0,13.5,407.7,416.3)" />
<use xlink:href="#f0_24" transform="matrix(13.5,0,0,13.5,413.2,416.3)" />
<use xlink:href="#f0_2q" transform="matrix(13.5,0,0,13.5,431.1,416.3)" />
<use xlink:href="#f0_3a" transform="matrix(13.5,0,0,13.5,443.7,416.3)" />
<use xlink:href="#f0_24" transform="matrix(13.5,0,0,13.5,454.6,416.3)" />
<use xlink:href="#f0_31" transform="matrix(13.5,0,0,13.5,467.1,416.3)" />
<use xlink:href="#f0_22" transform="matrix(13.5,0,0,13.5,480.7,416.3)" />
<use xlink:href="#f0_24" transform="matrix(13.5,0,0,13.5,494.7,416.3)" />
<use xlink:href="#f0_3a" transform="matrix(13.5,0,0,13.5,512.6,416.3)" />
<use xlink:href="#f0_24" transform="matrix(13.5,0,0,13.5,523.5,416.3)" />
<use xlink:href="#f0_31" transform="matrix(13.5,0,0,13.5,535.9,416.3)" />
<use xlink:href="#f0_32" transform="matrix(13.5,0,0,13.5,544.1,416.3)" />
<use xlink:href="#f0_20" transform="matrix(13.5,0,0,13.5,554.2,416.3)" />
<use xlink:href="#f0_2b" transform="matrix(13.5,0,0,13.5,565.7,416.3)" />
<use xlink:href="#f0_2c" transform="matrix(13.5,0,0,13.5,579.7,416.3)" />
<use xlink:href="#f0_2m" transform="matrix(13.5,0,0,13.5,585.2,416.3)" />
<use xlink:href="#f0_2m" transform="matrix(13.5,0,0,13.5,590.8,416.3)" />
<use xlink:href="#f0_24" transform="matrix(13.5,0,0,13.5,596.3,416.3)" />
<use xlink:href="#f0_2o" transform="matrix(13.5,0,0,13.5,608.8,416.3)" />
<use xlink:href="#f0_22" transform="matrix(13.5,0,0,13.5,622.8,416.3)" />
<use xlink:href="#f0_24" transform="matrix(13.5,0,0,13.5,636.8,416.3)" />
<use xlink:href="#f0_32" transform="matrix(13.5,0,0,13.5,654.7,416.3)" />
<use xlink:href="#f0_2y" transform="matrix(13.5,0,0,13.5,664.7,416.3)" />
<use xlink:href="#f0_24" transform="matrix(13.5,0,0,13.5,678.7,416.3)" />
<use xlink:href="#f0_2m" transform="matrix(13.5,0,0,13.5,691.2,416.3)" />
<use xlink:href="#f0_34" transform="matrix(13.5,0,0,13.5,696.8,416.3)" />
<use xlink:href="#f0_1r" transform="matrix(13.5,0,0,13.5,705.2,416.3)" />
<use xlink:href="#f0_2l" transform="matrix(13.5,0,0,13.5,717.4,416.3)" />
<use xlink:href="#f0_2l" transform="matrix(13.5,0,0,13.5,729.8,416.3)" />
<use xlink:href="#f0_24" transform="matrix(13.5,0,0,13.5,741.7,416.3)" />
<use xlink:href="#f0_2o" transform="matrix(13.5,0,0,13.5,754.2,416.3)" />
<use xlink:href="#f0_24" transform="matrix(13.5,0,0,13.5,773.6,416.3)" />
<use xlink:href="#f0_2o" transform="matrix(13.5,0,0,13.5,786,416.3)" />
<use xlink:href="#f0_1r" transform="matrix(13.5,0,0,13.5,805.4,416.3)" />
<use xlink:href="#f0_1r" transform="matrix(13.5,0,0,13.5,817.6,416.3)" />
<use xlink:href="#f0_2o" transform="matrix(13.5,0,0,13.5,829.8,416.3)" />
<use xlink:href="#f0_2l" transform="matrix(13.5,0,0,13.5,843.7,416.3)" />
<use xlink:href="#f0_2q" transform="matrix(13.5,0,0,13.5,855.7,416.3)" />
<use xlink:href="#f0_2n" transform="matrix(13.5,0,0,13.5,868.7,416.3)" />
<use xlink:href="#f0_24" transform="matrix(13.5,0,0,13.5,890.6,416.3)" />
<use xlink:href="#f0_2o" transform="matrix(13.5,0,0,13.5,903.1,416.3)" />
<use xlink:href="#f0_22" transform="matrix(13.5,0,0,13.5,917.1,416.3)" />
<use xlink:href="#f0_24" transform="matrix(13.5,0,0,13.5,931.1,416.3)" />
<use xlink:href="#f0_24" transform="matrix(13.5,0,0,13.5,485.4,447.3)" />
</g>
</g>
<text x="248" y="416" dx="0,-.2,0,0,0,0,0,0,0,0,-.2,0,-.2,0,0,0,0,0,0,-.3,-.3,0,0,0,0,0,0,-.3,0,-.1,0,-.2,0,0,0,0,0,0,0,0,0,0,0,0,0,0,0,0,-.4,0,0,0,0,0,0,0,0,0,-.4,0,0,0,0,0" class="s2_1">kun je informatie over de verschillende speltakken en aankomende</text>
<g clip-path="url(#c1_1)">
<g fill="#FFFFFF" >
<use xlink:href="#f0_3a" transform="matrix(13.5,0,0,13.5,497.7,447.3)" />
<use xlink:href="#f0_24" transform="matrix(13.5,0,0,13.5,508.6,447.3)" />
<use xlink:href="#f0_2o" transform="matrix(13.5,0,0,13.5,521,447.3)" />
<use xlink:href="#f0_24" transform="matrix(13.5,0,0,13.5,535.1,447.3)" />
<use xlink:href="#f0_2n" transform="matrix(13.5,0,0,13.5,547.5,447.3)" />
<use xlink:href="#f0_24" transform="matrix(13.5,0,0,13.5,569.5,447.3)" />
<use xlink:href="#f0_2o" transform="matrix(13.5,0,0,13.5,581.9,447.3)" />
<use xlink:href="#f0_34" transform="matrix(13.5,0,0,13.5,595.9,447.3)" />
<use xlink:href="#f0_24" transform="matrix(13.5,0,0,13.5,603.9,447.3)" />
<use xlink:href="#f0_2o" transform="matrix(13.5,0,0,13.5,616.4,447.3)" />
<use xlink:href="#f0_3a" transform="matrix(13.5,0,0,13.5,635.7,447.3)" />
<use xlink:href="#f0_2c" transform="matrix(13.5,0,0,13.5,646.9,447.3)" />
<use xlink:href="#f0_2o" transform="matrix(13.5,0,0,13.5,652.5,447.3)" />
<use xlink:href="#f0_22" transform="matrix(13.5,0,0,13.5,666.5,447.3)" />
<use xlink:href="#f0_24" transform="matrix(13.5,0,0,13.5,680.5,447.3)" />
<use xlink:href="#f0_2o" transform="matrix(13.5,0,0,13.5,692.9,447.3)" />
</g>
</g>
<text x="485" y="447" dx="0,-.2,-.3,0,0,0,0,0,0,-.4,0,0,0,0,0,0,0,0" class="s2_1">evenementen vinden</text>

</g>
<defs>
<path d="M417,0L57,1069H173L481,150l320,919H906L1221,145l313,924h108L1282,0H1163L849,912L535,0Z"
id="f0_1l"
transform="scale(0.001,-0.001)"/>

<path d="M749,449c0,0,-11,119,-90,193c0,0,-78,75,-196,75c0,0,-116,0,-195,-75c0,0,-79,-74,-89,-193ZM492,-7c0,0,-124,0,-219,52c0,0,-96,53,-149,146c0,0,-54,93,-54,211c0,0,0,117,51,211c0,0,52,93,141,145c0,0,89,52,201,52c0,0,111,0,200,-52c0,0,89,-52,139,-145c0,0,51,-92,51,-211l-2,-34H179c0,0,9,-125,96,-202c0,0,87,-77,220,-77c0,0,75,0,138,26c0,0,62,27,108,79l61,-70c0,0,-53,-64,-134,-98C668,26,588,-7,492,-7Z"
id="f0_24"
transform="scale(0.001,-0.001)"/>

<path d="M151,0V1134H260V0Z"
id="f0_2m"
transform="scale(0.001,-0.001)"/>

<path d="M151,0V1134H260V365L739,804H874L530,475L906,0H773L449,403L260,229V0Z"
id="f0_2l"
transform="scale(0.001,-0.001)"/>

<path d="M480,89c0,0,85,0,153,39c0,0,68,39,106,110c0,0,39,72,39,164c0,0,0,91,-39,163c0,0,-38,72,-106,111c0,0,-68,39,-153,39c0,0,-86,0,-154,-39c0,0,-68,-39,-107,-111c0,0,-39,-72,-39,-163c0,0,0,-92,39,-164c0,0,39,-71,107,-110c0,0,68,-39,154,-39Zm0,-96c0,0,-116,0,-210,52c0,0,-93,53,-146,146c0,0,-54,93,-54,211c0,0,0,117,54,211c0,0,53,93,146,145c0,0,94,52,210,52c0,0,116,0,209,-52c0,0,93,-52,146,-145c0,0,53,-94,53,-211c0,0,0,-118,-53,-211C835,191,782,98,689,45C689,45,596,-7,480,-7Z"
id="f0_2q"
transform="scale(0.001,-0.001)"/>

<path d="M151,0V804H255V657c0,0,43,73,119,113c0,0,77,40,176,40c0,0,101,0,175,-43c0,0,74,-43,111,-127c0,0,44,80,127,125c0,0,84,45,190,45c0,0,152,0,238,-87c0,0,86,-87,86,-257V0H1369V455c0,0,0,126,-60,191c0,0,-61,66,-171,66c0,0,-125,0,-197,-77c0,0,-72,-77,-72,-213V0H761V455c0,0,0,126,-61,191c0,0,-60,66,-171,66c0,0,-124,0,-197,-77c0,0,-72,-77,-72,-213V0Z"
id="f0_2n"
transform="scale(0.001,-0.001)"/>

<path d="M558,89c0,0,84,0,152,39c0,0,69,39,108,110c0,0,39,72,39,164c0,0,0,91,-39,163c0,0,-39,72,-108,111c0,0,-68,39,-152,39c0,0,-86,0,-154,-39c0,0,-68,-39,-107,-111c0,0,-39,-72,-39,-163c0,0,0,-92,39,-164c0,0,39,-71,107,-110c0,0,68,-39,154,-39Zm7,-96c0,0,-101,0,-181,42c0,0,-80,43,-129,124V0H151V1134H260V651c0,0,50,78,129,118c0,0,79,41,176,41c0,0,113,0,205,-51c0,0,92,-52,144,-145c0,0,52,-93,52,-212c0,0,0,-119,-52,-213C914,189,862,96,770,44C770,44,678,-7,565,-7Z"
id="f0_1z"
transform="scale(0.001,-0.001)"/>

<path d="M151,0V804H260V0Zm55,979c0,0,-33,0,-56,23c0,0,-23,23,-23,55c0,0,0,31,23,54c0,0,23,23,56,23c0,0,34,0,57,-23c0,0,23,-22,23,-52c0,0,0,-34,-23,-57c0,0,-23,-23,-57,-23Z"
id="f0_2c"
transform="scale(0.001,-0.001)"/>

<path d="M32,-303c0,0,-49,0,-94,13c0,0,-45,13,-74,39l38,82c0,0,47,-41,124,-41c0,0,64,0,99,38c0,0,34,39,34,113V804H267V-59c0,0,0,-113,-61,-178c0,0,-61,-66,-174,-66ZM214,981c0,0,-34,0,-57,23c0,0,-23,23,-23,55c0,0,0,30,23,53c0,0,23,23,57,23c0,0,34,0,56,-22c0,0,23,-22,23,-53c0,0,0,-33,-23,-56c0,0,-22,-23,-56,-23Z"
id="f0_2j"
transform="scale(0.001,-0.001)"/>

<path d="M469,-8c0,0,-119,0,-228,37C241,29,131,67,72,130l44,87c0,0,58,-58,154,-94c0,0,97,-36,199,-36c0,0,144,0,215,53c0,0,72,53,72,137c0,0,0,64,-39,102c0,0,-39,38,-95,59c0,0,-57,20,-158,45c0,0,-120,30,-192,59c0,0,-72,28,-123,86c0,0,-51,58,-51,157c0,0,0,81,43,148c0,0,42,66,131,106c0,0,89,40,220,40c0,0,92,0,179,-26c0,0,88,-25,152,-69L785,894c0,0,-67,44,-143,66c0,0,-77,22,-150,22c0,0,-141,0,-212,-54c0,0,-71,-54,-71,-140c0,0,0,-64,39,-103c0,0,39,-39,98,-59c0,0,59,-21,158,-45c0,0,118,-29,190,-58c0,0,73,-28,123,-85c0,0,51,-58,51,-155c0,0,0,-81,-44,-148C824,135,781,69,691,30C691,30,600,-8,469,-8Z"
id="f0_1d"
transform="scale(0.001,-0.001)"/>

<path d="M484,-7c0,0,-119,0,-213,51c0,0,-94,52,-147,146c0,0,-54,94,-54,212c0,0,0,117,54,211c0,0,53,93,147,145c0,0,94,52,213,52c0,0,104,0,186,-41c0,0,82,-40,129,-118L718,596c0,0,-40,59,-101,89c0,0,-61,30,-133,30c0,0,-87,0,-156,-39c0,0,-70,-39,-109,-111c0,0,-39,-72,-39,-163c0,0,0,-93,39,-164c0,0,39,-71,109,-110c0,0,69,-39,156,-39c0,0,72,0,133,29c0,0,61,29,101,88l81,-55C799,151,752,73,669,33C669,33,587,-7,484,-7Z"
id="f0_20"
transform="scale(0.001,-0.001)"/>

<path d="M483,-7c0,0,-158,0,-248,87c0,0,-91,88,-91,258V804H252V348c0,0,0,-126,63,-192c0,0,62,-66,178,-66c0,0,127,0,201,77c0,0,73,77,73,215V804H875V0H772V147C772,147,729,73,654,33C654,33,579,-7,483,-7Z"
id="f0_35"
transform="scale(0.001,-0.001)"/>

<path d="M405,-7c0,0,-113,0,-174,60c0,0,-61,62,-61,173V712H26v92H170V979H278V804H523V712H278V232c0,0,0,-72,36,-109c0,0,36,-37,103,-37c0,0,34,0,65,10c0,0,31,11,54,31L574,49C574,49,544,21,499,7C499,7,454,-7,405,-7Z"
id="f0_34"
transform="scale(0.001,-0.001)"/>

<path d="M151,0V804H255V655c0,0,44,74,123,114c0,0,79,41,183,41c0,0,151,0,240,-88c0,0,90,-88,90,-256V0H782V455c0,0,0,126,-62,191c0,0,-63,66,-179,66c0,0,-130,0,-206,-77c0,0,-75,-77,-75,-213V0Z"
id="f0_2o"
transform="scale(0.001,-0.001)"/>

<path d="M484,127c0,0,87,0,158,37c0,0,70,38,109,105c0,0,39,67,39,153c0,0,0,85,-39,152c0,0,-39,66,-109,104c0,0,-69,37,-158,37c0,0,-87,0,-156,-37c0,0,-70,-36,-109,-104c0,0,-39,-67,-39,-152c0,0,0,-86,39,-153c0,0,39,-67,109,-105c0,0,69,-37,156,-37Zm9,-430c0,0,-111,0,-211,33c0,0,-100,33,-163,91l55,82c0,0,58,-52,141,-81c0,0,84,-29,175,-29c0,0,153,0,225,71c0,0,72,71,72,220V186c0,0,-51,-76,-132,-116C655,70,573,31,474,31c0,0,-113,0,-206,49c0,0,-92,50,-145,139c0,0,-53,90,-53,203c0,0,0,113,53,201c0,0,53,89,144,138c0,0,92,49,207,49c0,0,102,0,184,-42c0,0,83,-41,133,-119V804H895V98c0,0,0,-204,-100,-302c0,0,-100,-99,-302,-99Z"
id="f0_2a"
transform="scale(0.001,-0.001)"/>

<path d="M174,0V1069H287V593H956v476h112V0H956V493H287V0Z"
id="f0_p"
transform="scale(0.001,-0.001)"/>

<path d="M367,-7c0,0,-98,0,-187,28C180,21,90,49,40,92l49,85c0,0,50,-39,126,-65c0,0,77,-25,159,-25c0,0,110,0,163,34c0,0,53,35,53,97c0,0,0,45,-29,70c0,0,-29,25,-74,38c0,0,-44,13,-117,25c0,0,-98,19,-158,38c0,0,-59,19,-101,65c0,0,-42,46,-42,127c0,0,0,100,84,165c0,0,84,64,234,64c0,0,77,0,155,-21c0,0,78,-21,129,-54L623,648c0,0,-99,69,-236,69c0,0,-104,0,-157,-37c0,0,-53,-37,-53,-96c0,0,0,-46,30,-74c0,0,30,-27,74,-40c0,0,44,-13,122,-27c0,0,97,-18,155,-37c0,0,58,-18,99,-62c0,0,41,-45,41,-122c0,0,0,-106,-88,-168C610,54,523,-7,367,-7Z"
id="f0_32"
transform="scale(0.001,-0.001)"/>

<path d="M69,0V78L778,972H79v97H927V992L220,98H946V0Z"
id="f0_1p"
transform="scale(0.001,-0.001)"/>

<path d="M394,78c0,0,92,0,158,42c0,0,65,42,97,121V373H397c0,0,-206,0,-206,-144c0,0,0,-70,53,-111c0,0,54,-40,150,-40ZM377,-7c0,0,-134,0,-214,64c0,0,-79,64,-79,169c0,0,0,102,74,165c0,0,74,63,236,63H649v49c0,0,0,104,-58,158c0,0,-58,54,-169,54c0,0,-77,0,-147,-25c0,0,-70,-25,-121,-70l-49,81c0,0,62,52,147,80c0,0,86,29,180,29c0,0,158,0,242,-79c0,0,84,-79,84,-233V0H654V125c0,0,-37,-62,-108,-97C546,28,475,-7,377,-7Z"
id="f0_1r"
transform="scale(0.001,-0.001)"/>

<path d="M480,89c0,0,84,0,152,39c0,0,68,39,107,110c0,0,39,72,39,164c0,0,0,91,-39,163c0,0,-39,72,-107,111c0,0,-68,39,-152,39c0,0,-86,0,-154,-39c0,0,-68,-39,-107,-111c0,0,-39,-72,-39,-163c0,0,0,-92,39,-164c0,0,39,-71,107,-110c0,0,68,-39,154,-39ZM471,-7c0,0,-113,0,-205,51c0,0,-92,52,-144,145c0,0,-52,94,-52,213c0,0,0,119,52,212c0,0,52,93,144,145c0,0,92,51,205,51c0,0,97,0,176,-41c0,0,79,-40,129,-118v483H885V0H781V159C781,159,732,78,652,35C652,35,571,-7,471,-7Z"
id="f0_22"
transform="scale(0.001,-0.001)"/>

<path d="M358,0L2,804H115L416,119L720,804H827L469,0Z"
id="f0_3a"
transform="scale(0.001,-0.001)"/>

<path d="M151,0V804H255V646c0,0,38,81,114,122c0,0,76,42,187,42V704l-26,2c0,0,-127,0,-198,-78c0,0,-72,-78,-72,-219V0Z"
id="f0_31"
transform="scale(0.001,-0.001)"/>

<path d="M315,0L12,804H116L368,121L626,804h94L976,121l255,683h100L1027,0H924L671,658L417,0Z"
id="f0_3b"
transform="scale(0.001,-0.001)"/>

<path d="M162,-7c0,0,-34,0,-57,24c0,0,-24,24,-24,59c0,0,0,36,24,59c0,0,23,24,57,24c0,0,34,0,58,-24c0,0,24,-23,24,-59c0,0,0,-35,-24,-59c0,0,-24,-24,-58,-24Z"
id="f0_4z"
transform="scale(0.001,-0.001)"/>

<path d="M170,0V712H26v92H170v99c0,0,0,110,63,174c0,0,63,64,180,64c0,0,45,0,88,-13c0,0,43,-13,72,-37l-37,-81c0,0,-47,40,-119,40c0,0,-70,0,-106,-39c0,0,-36,-38,-36,-113V804H523V712H278V0Z"
id="f0_29"
transform="scale(0.001,-0.001)"/>

<path d="M151,0V1134H260V663c0,0,44,70,122,109c0,0,78,38,179,38c0,0,151,0,240,-88c0,0,90,-88,90,-256V0H782V455c0,0,0,126,-62,191c0,0,-63,66,-179,66c0,0,-130,0,-206,-77c0,0,-75,-77,-75,-213V0Z"
id="f0_2b"
transform="scale(0.001,-0.001)"/>

<path d="M558,89c0,0,84,0,152,39c0,0,69,39,108,110c0,0,39,72,39,164c0,0,0,91,-39,163c0,0,-39,71,-108,110c0,0,-68,40,-152,40c0,0,-86,0,-154,-40c0,0,-68,-39,-107,-110c0,0,-39,-72,-39,-163c0,0,0,-92,39,-164c0,0,39,-71,107,-110c0,0,68,-39,154,-39ZM151,-295V804H255V645c0,0,49,79,129,122c0,0,80,43,181,43c0,0,113,0,205,-51c0,0,92,-52,144,-145c0,0,52,-93,52,-212c0,0,0,-121,-52,-214C914,188,862,95,771,44C771,44,680,-7,565,-7c0,0,-97,0,-176,40c0,0,-79,40,-129,118V-295Z"
id="f0_2y"
transform="scale(0.001,-0.001)"/>


</defs>

<!-- Any embedded fonts defined here -->
<style type="text/css" ><![CDATA[

@font-face {
	font-family: Montserrat-Regular_n;
	src: url("fonts/Montserrat-Regular_n.woff") format("woff");
}

]]></style>

</svg>
