<svg style="display: block;" xmlns="http://www.w3.org/2000/svg" version="1.1" width="1080" height="300" viewBox="0 0 400 100" preserveAspectRatio="none">
    <path transform="scale(1, 1)" d="M264.586 0.365 C 264.587 0.565,264.915 0.941,265.315 1.200 C 266.674 2.080,266.001 2.468,262.813 2.644 C 260.769 2.757,260.725 2.750,260.521 2.266 C 260.233 1.584,259.416 1.247,257.706 1.103 L 256.250 0.981 256.250 1.565 L 256.250 2.149 252.969 2.012 C 249.512 1.869,247.524 1.525,246.903 0.963 C 246.136 0.268,245.000 0.516,245.000 1.378 C 245.000 2.099,244.975 2.125,244.427 1.979 C 242.981 1.593,239.375 1.965,239.375 2.500 C 239.375 2.808,239.699 2.877,241.719 2.998 C 243.008 3.076,244.516 3.196,245.071 3.266 L 246.079 3.392 245.490 3.862 L 244.900 4.332 245.419 4.763 L 245.938 5.194 244.219 5.201 L 242.500 5.208 242.500 4.479 C 242.500 3.767,242.480 3.750,241.667 3.750 C 240.853 3.750,240.833 3.767,240.833 4.479 L 240.833 5.208 239.361 5.208 C 237.915 5.208,237.128 4.981,236.828 4.476 C 236.719 4.293,236.424 4.270,235.786 4.393 C 234.316 4.677,233.958 4.633,233.958 4.167 C 233.958 3.819,233.819 3.750,233.125 3.750 C 232.375 3.750,232.292 3.802,232.292 4.271 C 232.292 4.711,232.194 4.792,231.667 4.792 C 231.076 4.792,231.042 4.745,231.042 3.958 C 231.042 3.145,231.024 3.125,230.313 3.125 C 229.393 3.125,229.223 4.266,230.052 4.880 C 230.502 5.213,230.461 5.223,229.063 5.120 C 228.260 5.061,226.456 4.949,225.052 4.871 C 222.312 4.719,221.554 4.375,223.958 4.375 C 227.369 4.375,224.393 1.868,220.230 1.235 C 216.943 0.734,214.851 1.144,213.193 2.614 C 212.237 3.462,212.388 3.648,214.205 3.859 C 215.208 3.975,215.417 4.068,215.417 4.395 C 215.417 4.919,205.558 4.997,202.920 4.494 C 201.732 4.267,201.324 4.255,201.207 4.442 C 201.026 4.731,195.995 4.713,194.106 4.416 C 193.331 4.295,191.908 4.325,189.953 4.504 C 187.189 4.758,179.803 4.665,173.333 4.295 C 172.474 4.245,170.559 4.319,169.078 4.457 C 166.651 4.685,166.317 4.675,165.697 4.358 C 164.273 3.633,156.864 2.938,155.902 3.440 C 155.102 3.857,155.000 3.833,155.000 3.229 C 155.000 2.760,154.917 2.708,154.167 2.708 C 153.708 2.708,153.333 2.792,153.333 2.894 C 153.333 3.395,149.852 4.167,147.589 4.167 C 146.744 4.167,146.667 4.123,146.667 3.646 C 146.667 3.010,146.765 3.011,144.478 3.643 C 142.180 4.279,142.292 4.279,142.292 3.635 C 142.292 3.114,142.270 3.106,141.094 3.223 C 134.912 3.834,129.470 3.921,126.997 3.447 C 125.574 3.175,125.358 3.178,124.836 3.478 C 123.775 4.087,121.250 3.314,121.250 2.381 C 121.250 2.173,121.000 2.083,120.417 2.083 C 119.667 2.083,119.583 2.135,119.583 2.604 C 119.583 3.102,119.528 3.125,118.333 3.125 L 117.083 3.125 117.083 2.396 C 117.083 1.459,116.073 1.364,114.835 2.184 C 114.405 2.468,113.362 2.936,112.518 3.223 L 110.982 3.745 108.772 3.424 C 106.873 3.148,106.298 3.141,104.686 3.378 C 103.527 3.547,102.492 3.588,101.978 3.483 C 100.266 3.135,90.212 3.068,88.698 3.395 C 87.582 3.636,87.292 3.644,87.292 3.435 C 87.292 3.227,85.146 3.139,77.240 3.025 C 66.082 2.863,64.551 2.854,56.354 2.909 C 55.552 2.915,53.208 2.897,51.146 2.869 C 46.735 2.811,41.825 2.815,37.188 2.881 C 35.354 2.908,33.432 2.917,32.917 2.902 C 32.401 2.887,31.151 3.066,30.139 3.298 C 28.365 3.706,28.165 3.711,24.618 3.417 C 22.594 3.249,20.656 3.160,20.313 3.219 C 19.426 3.371,10.166 4.107,5.833 4.371 C 3.828 4.493,1.695 4.644,1.094 4.707 L -0.000 4.822 -0.000 6.890 L 0.000 8.958 200.000 8.958 L 400.000 8.958 400.000 7.083 L 400.000 5.208 399.236 5.208 C 398.816 5.208,397.859 5.102,397.110 4.971 C 396.092 4.794,395.728 4.794,395.669 4.971 C 395.568 5.275,393.462 5.279,391.667 4.979 C 390.660 4.811,389.884 4.818,388.646 5.005 C 387.145 5.231,358.402 3.869,350.677 3.206 C 349.381 3.094,349.167 3.123,349.167 3.407 C 349.167 3.701,348.789 3.727,345.885 3.638 C 344.081 3.582,339.229 3.440,335.104 3.323 C 330.979 3.206,326.453 3.020,325.046 2.911 C 323.139 2.763,322.388 2.775,322.093 2.959 C 321.788 3.150,321.316 3.143,320.001 2.930 C 318.740 2.725,318.244 2.714,318.069 2.890 C 317.766 3.193,315.998 3.190,314.145 2.885 C 313.045 2.703,312.630 2.703,312.449 2.885 C 312.094 3.240,311.452 3.183,309.123 2.593 C 307.322 2.137,306.880 2.092,306.002 2.281 C 304.582 2.585,304.375 2.560,304.375 2.083 C 304.375 1.628,303.072 1.455,302.813 1.875 C 302.644 2.147,301.464 2.138,298.760 1.845 C 296.822 1.635,296.154 1.660,293.107 2.054 C 288.587 2.637,288.958 2.681,288.958 1.563 L 288.958 0.625 288.125 0.625 C 287.375 0.625,287.292 0.677,287.292 1.146 L 287.292 1.667 283.356 1.667 C 280.573 1.667,278.951 1.570,277.822 1.336 C 276.407 1.044,276.149 1.041,275.560 1.313 C 274.486 1.809,272.052 2.161,271.858 1.848 C 271.732 1.643,271.417 1.641,270.356 1.836 C 268.003 2.270,267.802 2.222,267.033 1.045 C 266.291 -0.090,264.579 -0.566,264.586 0.365 M321.042 5.521 C 321.042 6.153,322.301 6.197,327.708 5.755 L 330.938 5.491 331.622 6.005 C 331.998 6.288,332.276 6.622,332.239 6.749 C 332.103 7.219,329.489 8.318,328.177 8.457 L 326.875 8.595 326.875 7.527 L 326.875 6.458 326.146 6.458 C 325.507 6.458,325.417 6.523,325.417 6.979 C 325.417 7.477,325.361 7.500,324.167 7.500 C 322.716 7.500,322.693 7.476,323.594 6.899 L 324.271 6.465 322.917 6.467 C 322.172 6.468,321.188 6.555,320.729 6.662 C 319.247 7.007,317.962 5.857,319.219 5.311 C 320.341 4.823,321.042 4.904,321.042 5.521 M312.310 6.535 C 313.294 6.705,315.333 6.911,316.841 6.993 C 319.322 7.128,319.583 7.179,319.583 7.529 C 319.583 7.998,312.236 8.109,309.886 7.676 C 308.739 7.464,308.535 7.477,308.232 7.779 C 307.881 8.131,307.508 8.249,306.302 8.390 C 305.358 8.501,305.351 7.752,306.290 7.197 C 308.324 5.995,308.852 5.937,312.310 6.535 " fill="#2b2f31" stroke="none"/>
</svg>